<?xml version="1.0" encoding="UTF-8" standalone="no"?>
<svg
   width="78"
   height="30.749998"
   viewBox="0 0 78 30.749998"
   fill="none"
   version="1.1"
   id="svg19"
   sodipodi:docname="to_fix_d2l_image.svg"
   inkscape:version="1.2.1 (9c6d41e4, 2022-07-14)"
   xmlns:inkscape="http://www.inkscape.org/namespaces/inkscape"
   xmlns:sodipodi="http://sodipodi.sourceforge.net/DTD/sodipodi-0.dtd"
   xmlns="http://www.w3.org/2000/svg"
   xmlns:svg="http://www.w3.org/2000/svg">
  <sodipodi:namedview
     id="namedview21"
     pagecolor="#ffffff"
     bordercolor="#000000"
     borderopacity="0.25"
     inkscape:showpageshadow="2"
     inkscape:pageopacity="0.0"
     inkscape:pagecheckerboard="0"
     inkscape:deskcolor="#d1d1d1"
     showgrid="false"
     inkscape:zoom="5.6190476"
     inkscape:cx="22.601695"
     inkscape:cy="11.745763"
     inkscape:window-width="1667"
     inkscape:window-height="690"
     inkscape:window-x="0"
     inkscape:window-y="25"
     inkscape:window-maximized="0"
     inkscape:current-layer="svg19" />
  <rect
     x="0.3687205"
     y="0.3687205"
     width="77.262558"
     height="30.012558"
     rx="5.5"
     fill="#ffffff"
     id="rect2"
     ry="5.5"
     style="stroke-width:0.737441" />
  <g
     clip-path="url(#clip0_336_33)"
     id="g8"
     transform="matrix(0.74290922,0,0,0.73201365,-0.00273409,0.00271449)">
    <path
       d="m 14.6775,12 h 12.645 c 0.71,4e-4 1.3908,0.2826 1.8928,0.7847 0.5021,0.502 0.7843,1.1828 0.7847,1.8928 v 8.645 c -4e-4,0.71 -0.2826,1.3908 -0.7847,1.8928 -0.502,0.5021 -1.1828,0.7843 -1.8928,0.7847 H 20.97 l -2.55,3.1875 C 17.4831,30.3545 16,30 16,28.25 V 26 h -1.3225 c -0.71,-4e-4 -1.3908,-0.2826 -1.8928,-0.7847 C 12.2826,24.7133 12.0004,24.0325 12,23.3225 v -8.645 c 4e-4,-0.71 0.2826,-1.3908 0.7847,-1.8928 0.502,-0.5021 1.1828,-0.7843 1.8928,-0.7847 z"
       fill="#006fbf"
       id="path4" />
    <path
       d="m 16,19 c 2,2.5 8,2.5 10,0"
       stroke="#ffffff"
       stroke-width="2"
       stroke-linecap="round"
       id="path6" />
  </g>
  <path
     d="m 33.778091,15.320099 v 2.997596 c -0.381335,0.276701 -0.788747,0.479981 -1.222085,0.609767 -0.429922,0.126418 -0.890971,0.189591 -1.383297,0.189591 -0.613644,0 -1.170082,-0.09392 -1.669318,-0.281825 -0.495743,-0.187908 -0.920464,-0.449237 -1.274089,-0.783987 -0.350133,-0.334749 -0.620552,-0.734429 -0.811256,-1.199038 -0.190705,-0.464609 -0.286021,-0.971895 -0.286021,-1.521856 0,-0.556843 0.0919,-1.067496 0.27562,-1.532105 0.183722,-0.464609 0.443739,-0.864288 0.780054,-1.199038 0.339733,-0.33475 0.750561,-0.594395 1.232487,-0.778863 0.481925,-0.184467 1.022763,-0.276701 1.622513,-0.276701 0.305113,0 0.58935,0.02394 0.852861,0.07174 0.266926,0.0478 0.513126,0.114414 0.738451,0.19984 0.228816,0.08198 0.43683,0.182784 0.624044,0.302321 0.187213,0.119538 0.358824,0.251081 0.514836,0.394556 l -0.400429,0.625139 c -0.0624,0.09904 -0.143901,0.160531 -0.244417,0.184468 -0.100515,0.02049 -0.209723,-0.0051 -0.327622,-0.07686 -0.114408,-0.06493 -0.228817,-0.129786 -0.343224,-0.194716 -0.114409,-0.06493 -0.242709,-0.121295 -0.384828,-0.169095 -0.138701,-0.0478 -0.29642,-0.08711 -0.473233,-0.117855 -0.173321,-0.03074 -0.374426,-0.04612 -0.603242,-0.04612 -0.370935,0 -0.70725,0.06149 -1.008871,0.184468 -0.298129,0.122978 -0.552947,0.298881 -0.764453,0.527782 -0.211507,0.2289 -0.374427,0.503844 -0.488834,0.824979 -0.114408,0.321134 -0.171612,0.679821 -0.171612,1.07606 0,0.423616 0.0607,0.802799 0.182012,1.137549 0.124809,0.331382 0.29813,0.613208 0.520037,0.845476 0.225324,0.2289 0.495743,0.404803 0.811257,0.527782 0.315513,0.119537 0.667355,0.179343 1.055674,0.179343 0.277328,0 0.525237,-0.02906 0.743652,-0.08711 0.218415,-0.05805 0.43163,-0.136666 0.639644,-0.235708 v -1.342513 h -0.946465 c -0.09012,0 -0.161212,-0.02394 -0.213216,-0.07174 -0.04851,-0.05124 -0.07281,-0.11273 -0.07281,-0.184467 v -0.77886 z m 4.670076,0.481665 c 0,-0.163971 -0.02429,-0.317695 -0.07281,-0.461169 -0.04509,-0.146915 -0.114408,-0.275018 -0.208015,-0.384307 -0.0936,-0.10929 -0.213215,-0.194716 -0.358825,-0.256205 -0.142193,-0.06493 -0.308604,-0.09736 -0.499235,-0.09736 -0.371009,0 -0.663937,0.104166 -0.878862,0.31257 -0.211505,0.208404 -0.346716,0.503845 -0.405628,0.886469 z m -2.449371,0.76349 c 0.0208,0.269893 0.06931,0.503845 0.14561,0.702001 0.07622,0.194715 0.176812,0.357002 0.301621,0.486788 0.124808,0.12642 0.272128,0.22202 0.442031,0.28695 0.17332,0.06149 0.364025,0.09223 0.57204,0.09223 0.208014,0 0.386536,-0.02394 0.535637,-0.07174 0.15252,-0.0478 0.284237,-0.100798 0.395228,-0.158847 0.114408,-0.05805 0.213214,-0.111047 0.29642,-0.158847 0.08662,-0.0478 0.16983,-0.07174 0.249618,-0.07174 0.107425,0 0.187213,0.03931 0.239217,0.117855 l 0.369226,0.461168 c -0.142192,0.163971 -0.301621,0.302322 -0.478433,0.415052 -0.176813,0.109289 -0.362318,0.198156 -0.556439,0.266453 -0.190705,0.06493 -0.386611,0.111046 -0.587642,0.13835 -0.197614,0.0273 -0.390027,0.04099 -0.57724,0.04099 -0.37101,0 -0.715942,-0.0598 -1.034872,-0.179344 -0.319006,-0.122978 -0.596334,-0.302321 -0.832059,-0.53803 -0.235799,-0.239149 -0.42123,-0.532906 -0.556439,-0.881344 -0.13521,-0.351879 -0.202815,-0.758366 -0.202815,-1.219535 0,-0.358687 0.05892,-0.695193 0.176813,-1.009446 0.117826,-0.317694 0.286021,-0.592712 0.504436,-0.82498 0.221832,-0.235708 0.490543,-0.42186 0.806056,-0.558526 0.318931,-0.136668 0.677756,-0.204964 1.076476,-0.204964 0.33624,0 0.646554,0.05292 0.930864,0.158847 0.284238,0.105922 0.528655,0.261329 0.733252,0.466293 0.204523,0.201523 0.364026,0.45092 0.478433,0.748117 0.117826,0.293757 0.176813,0.630264 0.176813,1.009447 0,0.191275 -0.0208,0.321135 -0.0624,0.389431 -0.04161,0.06493 -0.121392,0.09736 -0.239217,0.09736 z m 6.444068,2.551799 c -0.464541,0 -0.821658,-0.128102 -1.071275,-0.384307 -0.246126,-0.259645 -0.369226,-0.616575 -0.369226,-1.070936 v -2.936106 h -0.546038 c -0.06931,0 -0.128226,-0.02218 -0.176812,-0.06662 -0.04851,-0.04443 -0.07281,-0.111046 -0.07281,-0.199839 v -0.502161 l 0.858059,-0.138351 0.27042,-1.434747 c 0.01739,-0.06829 0.05029,-0.121295 0.09881,-0.158847 0.04859,-0.03755 0.11099,-0.05637 0.187212,-0.05637 h 0.665647 v 1.655083 h 1.424901 v 0.901841 h -1.424901 v 2.848997 c 0,0.163971 0.0399,0.292073 0.119609,0.384307 0.0832,0.09223 0.195905,0.13835 0.338023,0.13835 0.07979,0 0.145611,-0.0086 0.197614,-0.02562 0.0555,-0.02049 0.102299,-0.04099 0.14041,-0.06149 0.04161,-0.02049 0.07801,-0.03931 0.109208,-0.05637 0.0312,-0.02049 0.0624,-0.03074 0.0936,-0.03074 0.03818,0 0.06939,0.01025 0.09361,0.03074 0.02429,0.01706 0.05029,0.04443 0.07801,0.08198 l 0.384826,0.614892 c -0.187213,0.153722 -0.402136,0.269893 -0.644845,0.348438 -0.242634,0.07855 -0.494035,0.117854 -0.754053,0.117854 z m 11.459598,-7.491427 v 7.409441 h -1.404099 v -3.238428 h -3.531048 v 3.238428 h -1.404097 v -7.409441 h 1.404097 v 3.187187 h 3.531048 v -3.187187 z m 4.895326,4.176138 c 0,-0.163971 -0.02429,-0.317695 -0.07281,-0.461169 -0.04509,-0.146915 -0.114407,-0.275018 -0.208014,-0.384307 -0.0936,-0.10929 -0.213215,-0.194716 -0.358826,-0.256205 -0.142192,-0.06493 -0.308604,-0.09736 -0.499234,-0.09736 -0.371009,0 -0.663938,0.104166 -0.878862,0.31257 -0.211506,0.208404 -0.346715,0.503845 -0.405629,0.886469 z m -2.449372,0.76349 c 0.0208,0.269893 0.06931,0.503845 0.14561,0.702001 0.07622,0.194715 0.176813,0.357002 0.301621,0.486788 0.124809,0.12642 0.272128,0.22202 0.442032,0.28695 0.173321,0.06149 0.364025,0.09223 0.57204,0.09223 0.208014,0 0.386535,-0.02394 0.535637,-0.07174 0.152519,-0.0478 0.284238,-0.100798 0.395227,-0.158847 0.114409,-0.05805 0.213216,-0.111047 0.296422,-0.158847 0.08662,-0.0478 0.169828,-0.07174 0.249617,-0.07174 0.107425,0 0.187213,0.03931 0.239217,0.117855 l 0.369226,0.461168 c -0.142193,0.163971 -0.301621,0.302322 -0.478434,0.415052 -0.176812,0.109289 -0.362317,0.198156 -0.556439,0.266453 -0.190705,0.06493 -0.38661,0.111046 -0.587641,0.13835 -0.197614,0.0273 -0.390027,0.04099 -0.577241,0.04099 -0.371008,0 -0.715941,-0.0598 -1.034872,-0.179344 -0.319005,-0.122978 -0.596333,-0.302321 -0.832058,-0.53803 -0.2358,-0.239149 -0.42123,-0.532906 -0.556439,-0.881344 -0.135209,-0.351879 -0.202815,-0.758366 -0.202815,-1.219535 0,-0.358687 0.05892,-0.695193 0.176813,-1.009446 0.117825,-0.317694 0.28602,-0.592712 0.504435,-0.82498 0.221833,-0.235708 0.490543,-0.42186 0.806056,-0.558526 0.318931,-0.136668 0.677757,-0.204964 1.076476,-0.204964 0.336241,0 0.646554,0.05292 0.930865,0.158847 0.284238,0.105922 0.528655,0.261329 0.733251,0.466293 0.204524,0.201523 0.364026,0.45092 0.478435,0.748117 0.117825,0.293757 0.176811,0.630264 0.176811,1.009447 0,0.191275 -0.0208,0.321135 -0.0624,0.389431 -0.0416,0.06493 -0.121391,0.09736 -0.239217,0.09736 z m 6.01645,-5.144592 v 7.614405 h -1.284489 v -7.614405 z m 2.712807,6.251396 c 0.145611,0.174219 0.303405,0.297198 0.473234,0.368935 0.173395,0.07174 0.360608,0.107606 0.56164,0.107606 0.194195,0 0.369225,-0.03586 0.525236,-0.107606 0.156011,-0.07174 0.287803,-0.181027 0.395227,-0.327942 0.110991,-0.146915 0.195906,-0.331383 0.254818,-0.553403 0.05899,-0.225459 0.0884,-0.490229 0.0884,-0.794234 0,-0.307446 -0.026,-0.567091 -0.07801,-0.778863 -0.04851,-0.215212 -0.119608,-0.389431 -0.213214,-0.522658 -0.09361,-0.133226 -0.208015,-0.230584 -0.343225,-0.292073 -0.131717,-0.06149 -0.282529,-0.09223 -0.452432,-0.09223 -0.266927,0 -0.494034,0.05637 -0.681247,0.169095 -0.187213,0.10929 -0.364026,0.264769 -0.530438,0.466292 z m -0.06761,-3.176939 c 0.218416,-0.242516 0.466324,-0.438988 0.743652,-0.589271 0.277403,-0.150282 0.603243,-0.22546 0.977669,-0.22546 0.291219,0 0.556438,0.0598 0.795655,0.179343 0.242708,0.119538 0.450724,0.293757 0.624044,0.522658 0.176812,0.225461 0.312022,0.505601 0.405629,0.840351 0.0971,0.331383 0.14561,0.71225 0.14561,1.142674 0,0.392872 -0.05372,0.756683 -0.161211,1.091432 -0.107425,0.33475 -0.261728,0.62514 -0.462833,0.871096 -0.197614,0.245957 -0.438539,0.438989 -0.722851,0.579023 -0.280819,0.136667 -0.596258,0.204964 -0.946466,0.204964 -0.298129,0 -0.552947,-0.04443 -0.764454,-0.133227 -0.211432,-0.09223 -0.400428,-0.218652 -0.56684,-0.379183 v 2.15212 h -1.284485 v -6.973893 h 0.785256 c 0.166411,0 0.275619,0.07686 0.327623,0.230584 z"
     fill="#006fbf"
     id="path10"
     style="stroke-width:0.737441" />
  <rect
     x="0.3687205"
     y="0.3687205"
     width="77.262558"
     height="30.012558"
     rx="5.5"
     stroke="#cdd5dc"
     id="rect12"
     ry="5.5"
     style="stroke-width:0.737441" />
  <defs
     id="defs17">
    <clipPath
       id="clip0_336_33">
      <rect
         width="18"
         height="18"
         fill="#ffffff"
         transform="translate(12,12)"
         id="rect14"
         x="0"
         y="0" />
    </clipPath>
  </defs>
</svg>
